<svg width="53" height="45" viewBox="0 0 53 45" fill="none" xmlns="http://www.w3.org/2000/svg">
<path d="M52.7198 32.7689C52.4891 32.3172 52.1877 31.9053 51.827 31.5487C51.4124 31.1291 50.9319 30.7802 50.4044 30.516C49.1069 29.8672 47.3867 29.6738 45.3957 30.6499C43.8769 31.3545 42.2499 31.7973 40.5835 31.9594C46.786 29.0858 49.4846 21.7282 46.611 15.5257C43.7374 9.32312 36.3798 6.62451 30.1773 9.49811C23.9747 12.3717 21.2761 19.7293 24.1497 25.9319C26.1531 30.2561 30.4612 33.046 35.2266 33.1052L35.2355 33.1022C37.6342 34.4087 40.9168 34.0962 43.628 33.8343C44.5427 33.7263 45.4627 33.6687 46.3838 33.6617C48.4075 33.7123 48.2974 35.8551 48.2795 36.0961C48.2365 36.4087 48.455 36.6971 48.7677 36.7401C48.8944 36.7575 49.0232 36.732 49.1336 36.6675L52.6603 34.6259C52.7563 34.5701 52.8339 34.4873 52.8835 34.3879C53.0858 33.9831 53.0204 33.3849 52.7198 32.7689ZM27.4799 28.6709C25.37 26.5681 24.1826 23.7126 24.1795 20.7337C24.1716 17.7594 25.3485 14.9043 27.4502 12.7996H27.4531C31.8284 8.40947 38.9343 8.39749 43.3244 12.7728C47.7145 17.1481 47.7265 24.254 43.3512 28.6441C38.9758 33.0342 31.87 33.0462 27.4799 28.6709ZM49.3836 35.2033C49.2259 34.126 48.6188 32.5754 46.4076 32.5249C45.4418 32.5302 44.477 32.5898 43.5178 32.7034L42.5953 32.7897C43.741 32.5553 44.8536 32.1804 45.9076 31.6737H45.9046C47.5177 30.8821 48.8807 31.0249 49.9015 31.5338C50.3166 31.7427 50.6945 32.0181 51.0205 32.3493C51.2939 32.6179 51.5229 32.9283 51.699 33.2689C51.7823 33.4229 51.8424 33.5883 51.8776 33.7599L49.3836 35.2033Z" fill="white"/>
<path d="M43.7636 15.8977C43.763 15.8967 43.7625 15.8958 43.7619 15.8947C42.8754 14.5499 41.0666 14.1783 39.7217 15.0647C38.4999 15.87 38.0641 17.456 38.7026 18.7726L38.7115 18.8142C39.5186 20.2061 41.3003 20.6815 42.6935 19.8767C44.0878 19.0735 44.5668 17.292 43.7636 15.8977ZM42.1191 18.8857C41.2701 19.3683 40.1909 19.0793 39.6966 18.2369L39.6817 18.2101C39.464 17.8097 39.4076 17.3412 39.524 16.9006C39.7922 15.9517 40.7789 15.3997 41.7279 15.6679C42.1638 15.7911 42.5367 16.0754 42.7709 16.4632C43.2529 17.313 42.9625 18.3925 42.1191 18.8857Z" fill="white"/>
<path d="M37.0271 19.0909C36.5919 18.6544 36.0007 18.4091 35.3843 18.4094C34.1007 18.4086 33.0594 19.4486 33.0585 20.7322C33.0577 22.0159 34.0977 23.0572 35.3813 23.058C36.665 23.0588 37.7063 22.0189 37.7071 20.7352C37.7075 20.1186 37.4629 19.5272 37.0271 19.0909ZM36.2236 21.567C35.7606 22.0338 35.0069 22.0369 34.5401 21.5739C34.0733 21.1109 34.0702 20.3573 34.5332 19.8905C34.9962 19.4237 35.7499 19.4206 36.2166 19.8836C36.4432 20.1084 36.5701 20.4147 36.5687 20.7338C36.5691 21.0464 36.4448 21.3462 36.2236 21.567Z" fill="#CD2E71"/>
<path d="M32.0839 22.6861L32.0571 22.6533C31.2521 21.2594 29.4699 20.7811 28.0751 21.5849C26.6773 22.3853 26.193 24.1673 26.9934 25.5652C26.9949 25.5677 26.9964 25.5703 26.9978 25.5728C27.3878 26.2456 28.0309 26.7342 28.7834 26.9299C29.5175 27.1272 30.2995 27.0289 30.9619 26.6561L30.9976 26.6353C32.38 25.8384 32.8643 24.0778 32.0839 22.6861ZM30.4233 25.6353L30.3965 25.6502C29.554 26.1032 28.5041 25.8119 28.0156 24.9895C27.7766 24.5874 27.707 24.1068 27.8222 23.6533L27.8252 23.6563C27.9464 23.2013 28.2443 22.8135 28.6525 22.5789C29.5016 22.0964 30.5808 22.3853 31.075 23.2277L31.0899 23.2545C31.5419 24.0985 31.2478 25.1488 30.4233 25.6353Z" fill="white"/>
<path d="M42.7233 21.6266L42.7322 21.6087L42.7024 21.5908C41.308 20.7846 39.5239 21.2615 38.7177 22.6559C38.7176 22.656 38.7176 22.6561 38.7175 22.6563C37.8957 24.0427 38.3534 25.8327 39.7398 26.6546C41.1262 27.4764 42.9163 27.0187 43.7381 25.6323V25.6145L43.753 25.5877C44.551 24.208 44.0922 22.443 42.7233 21.6266ZM42.7917 24.9687C42.7761 24.9925 42.7621 25.0173 42.75 25.0431C42.1483 25.8244 41.0271 25.9699 40.2458 25.3683C39.5937 24.8661 39.3693 23.9832 39.7025 23.2306C40.1891 22.4061 41.2393 22.112 42.0833 22.564L42.1429 22.5967C42.9577 23.0922 43.2394 24.1404 42.7827 24.9776L42.7917 24.9687Z" fill="white"/>
<path d="M35.3863 11.0615C33.7739 11.0609 32.4664 12.3676 32.4658 13.98C32.4655 14.7551 32.7735 15.4985 33.3218 16.0464C33.8684 16.5939 34.6105 16.9013 35.3842 16.9005C36.9966 16.9011 38.3042 15.5944 38.3048 13.9821C38.3054 12.3696 36.9987 11.0621 35.3863 11.0615ZM36.6759 15.249C35.9814 15.9492 34.8508 15.9538 34.1507 15.2593C33.8115 14.9229 33.6213 14.4647 33.6225 13.987C33.6214 13.5171 33.8077 13.0661 34.1403 12.7341C34.8348 12.0339 35.9654 12.0293 36.6656 12.7237C37.3658 13.4182 37.3704 14.5488 36.6759 15.249Z" fill="white"/>
<path d="M35.3863 24.5698C33.7739 24.5692 32.4664 25.8759 32.4658 27.4883C32.4655 28.2634 32.7735 29.0068 33.3218 29.5547C33.8684 30.1022 34.6105 30.4096 35.3842 30.4088C36.9966 30.4094 38.3042 29.1027 38.3048 27.4904C38.3054 25.8779 36.9987 24.5704 35.3863 24.5698ZM36.6759 28.7543C35.9814 29.4545 34.8508 29.4591 34.1507 28.7646C33.8115 28.4283 33.6213 27.97 33.6225 27.4923C33.6214 27.0224 33.8077 26.5714 34.1403 26.2394C34.8348 25.5392 35.9654 25.5346 36.6656 26.229C37.3658 26.9235 37.3704 28.0541 36.6759 28.7543Z" fill="white"/>
<path d="M31.0113 14.8287C31.0048 14.8249 30.9982 14.8211 30.9917 14.8173C29.618 14.0209 27.8595 14.4725 27.0395 15.8322C27.0189 15.8612 27.0009 15.8921 26.9859 15.9244C26.2194 17.3017 26.686 19.0388 28.0394 19.8468L28.0365 19.8587L28.1168 19.9034C29.5075 20.6756 31.2605 20.191 32.0571 18.8142C32.8688 17.4249 32.4006 15.6405 31.0113 14.8287ZM31.072 18.2398C30.5779 19.0821 29.4986 19.3711 28.6495 18.8886C27.8089 18.3945 27.5201 17.3174 28.0007 16.469H27.9978L28.0127 16.4393C28.5152 15.6153 29.5815 15.3399 30.4203 15.8173C31.2637 16.3105 31.5541 17.39 31.072 18.2398Z" fill="white"/>
<path d="M9.92174 14.0701C6.88758 16.2691 5.74721 19.5878 6.50062 24.0262C7.00399 26.9916 8.2473 29.0935 10.2306 30.3318C10.8852 30.7456 11.6376 31.0934 12.4878 31.375C10.5143 29.6695 9.20568 26.92 8.56176 23.1266C7.92274 19.3621 8.37607 16.3433 9.92174 14.0701ZM14.0395 10.7562C16.7256 10.3002 19.0176 10.8769 20.9152 12.4863L21.3222 10.0697C21.3869 9.69219 21.5589 9.47975 21.8381 9.43236C22.1173 9.38496 22.343 9.43085 22.5152 9.57001C22.6954 9.6979 22.7977 9.83406 22.8222 9.97848C22.8451 10.1133 22.8438 10.2224 22.8184 10.306L21.6621 17.4112C21.6214 17.7549 21.447 17.9529 21.1389 18.0052C20.8404 18.0559 20.6051 18.0116 20.4329 17.8725C20.2607 17.7333 20.1648 17.606 20.1452 17.4904C20.1239 17.3653 20.126 17.2609 20.1514 17.1774L20.6173 14.3198C19.5767 13.1494 18.3319 12.4395 16.883 12.1901C16.4044 12.1129 15.8281 12.1315 15.1541 12.2459C14.4898 12.3587 13.8339 12.6087 13.1864 12.9959C12.5486 13.3815 12.009 13.8495 11.5675 14.3999C11.1357 14.9487 10.79 15.567 10.5303 16.255C10.2691 16.9332 10.0874 17.6426 9.98524 18.383C9.77752 19.7852 9.80849 21.2806 10.0781 22.8692C10.4753 25.2088 11.1901 27.2023 12.2225 28.8496C13.0226 30.1203 13.9916 30.9563 15.1295 31.3574C15.7193 31.5644 16.3993 31.6025 17.1696 31.4717C17.9494 31.3394 18.6944 31.0891 19.4045 30.7209C20.1243 30.3511 20.7539 29.8876 21.2932 29.3305C22.4345 28.176 23.1351 26.7892 23.3952 25.1701C23.4341 24.7574 23.6027 24.5257 23.9012 24.475C24.1997 24.4243 24.435 24.4686 24.6072 24.6078C24.7794 24.7469 24.8819 24.9128 24.9145 25.1053L24.944 25.2786C24.9376 25.2995 24.9202 25.4015 24.8919 25.5846C24.8732 25.7661 24.8297 26.0063 24.7616 26.3051C24.1983 28.5303 22.9681 30.2695 21.071 31.5227C19.9302 32.271 18.6071 32.763 17.1019 32.9987C15.608 33.2424 14.1638 33.2251 12.7694 32.9467C11.383 32.6571 10.1597 32.1317 9.0994 31.3707C6.89364 29.8136 5.52192 27.4512 4.98423 24.2836C4.29291 20.211 4.97996 16.9643 7.04536 14.5435C8.79084 12.5138 11.1222 11.2514 14.0395 10.7562Z" fill="#CD2E71"/>
</svg>
